<?xml version="1.0" encoding="utf-8"?>
<!-- Generator: Adobe Illustrator 23.0.1, SVG Export Plug-In . SVG Version: 6.00 Build 0)  -->
<svg version="1.1" id="Layer_1" xmlns="http://www.w3.org/2000/svg" xmlns:xlink="http://www.w3.org/1999/xlink" x="0px" y="0px"
	 viewBox="0 0 559.5 125.1" style="enable-background:new 0 0 559.5 125.1;" xml:space="preserve">
<style type="text/css">
	.st0{fill:none;stroke:#5A87C5;stroke-width:5.3396;stroke-linecap:round;stroke-miterlimit:10;}
	.st1{fill:none;stroke:#44AED1;stroke-width:5.3396;stroke-linecap:round;stroke-miterlimit:10;}
	.st2{fill:none;stroke:#BEE6F0;stroke-width:5.3396;stroke-linecap:round;stroke-miterlimit:10;}
	.st3{fill:none;stroke:#8DD4F3;stroke-width:5.3396;stroke-linecap:round;stroke-miterlimit:10;}
	.st4{fill:none;stroke:#FFFFFF;stroke-width:2.4357;stroke-miterlimit:10;}
	.st5{fill:#FFFFFF;stroke:#FFFFFF;stroke-width:1.2153;stroke-miterlimit:10;}
</style>
<g>
	<path id="darkblue" class="st0" d="M12.9,60.9c0,0,8.6,2.2,43.8,24.8c28,17.9,54.7,29.2,92.8-24.5"/>
	<path class="st1" d="M12.9,60.9c0,0,28.9-27.5,56.7-7.7s43.5,35.5,79.7,7.9"/>
	<path class="st2" d="M12.9,60.9c0,0,34.1,13.5,58.1-4.1s51.1-19.9,78.5,4.1"/>
	<path class="st3" d="M149.5,60.9C140,46.4,118.2,23.1,100,23.1c-15.7,0-18.6,4.6-42,23.8s-45.2,14-45.2,14"/>
</g>
<path class="st4" d="M211,85.7c0.2,0.5,0.2,1,0,1.6c-0.2,0.5-0.6,0.9-1.1,1.1c-0.5,0.2-1,0.2-1.6,0s-0.9-0.6-1.1-1.1L200.5,72
	c-0.2,0.1-0.4,0.1-0.7,0.1h-24.7c-0.2,0-0.4,0-0.7-0.1l-6.7,15.4c-0.4,0.8-1,1.2-1.9,1.2c-0.3,0-0.5-0.1-0.8-0.2
	c-0.5-0.2-0.9-0.6-1.1-1.1c-0.2-0.5-0.2-1,0-1.6l21.6-49.5c0.4-0.8,1-1.2,1.9-1.2s1.5,0.4,1.9,1.2L211,85.7z M198.7,68l-11.3-25.8
	L176.2,68H198.7z"/>
<path class="st4" d="M240.4,31.4c7.4,0,13.7,2.6,19,7.9c5.2,5.2,7.8,11.5,7.8,18.9c0,7.4-2.6,13.7-7.8,19
	c-4.7,4.7-10.3,7.3-16.9,7.8v5.2c0,0.6-0.2,1.1-0.6,1.5c-0.4,0.4-0.9,0.6-1.5,0.6c-0.6,0-1.1-0.2-1.5-0.6c-0.4-0.4-0.6-0.9-0.6-1.5
	v-5.2c-6.6-0.5-12.2-3.1-16.9-7.8c-5.2-5.2-7.8-11.5-7.8-19c0-7.4,2.6-13.7,7.8-18.9C226.7,34,233,31.4,240.4,31.4z M242.4,80.8
	c5.8-0.5,10.7-2.9,14.6-7.3c4-4.3,6-9.4,6-15.3c0-6.2-2.2-11.6-6.6-16c-4.4-4.4-9.8-6.7-16-6.7c-6.2,0-11.6,2.2-16,6.7
	c-4.4,4.4-6.6,9.8-6.6,16c0,5.9,2,11,6,15.3c3.9,4.3,8.8,6.7,14.6,7.3v-5.1c0-0.6,0.2-1.1,0.6-1.5c0.4-0.4,0.9-0.6,1.5-0.6
	c0.6,0,1.1,0.2,1.5,0.6c0.4,0.4,0.6,0.9,0.6,1.5V80.8z"/>
<path class="st4" d="M314.8,68.5c0,5.5-2,10.3-5.9,14.2c-3.9,3.9-8.7,5.9-14.2,5.9c-5.5,0-10.3-2-14.2-5.9
	c-3.9-3.9-5.9-8.7-5.9-14.2V37.1c0-0.6,0.2-1.1,0.6-1.5c0.4-0.4,0.9-0.6,1.5-0.6c0.6,0,1.1,0.2,1.5,0.6c0.4,0.4,0.6,0.9,0.6,1.5
	v31.4c0,4.4,1.6,8.2,4.7,11.3c3.1,3.1,6.9,4.7,11.3,4.7c4.4,0,8.2-1.6,11.3-4.7c3.1-3.1,4.7-6.9,4.7-11.3V37.1
	c0-0.6,0.2-1.1,0.6-1.5c0.4-0.4,0.9-0.6,1.5-0.6c0.5,0,1,0.2,1.5,0.6c0.4,0.4,0.6,0.9,0.6,1.5V68.5z"/>
<path class="st4" d="M364.9,85.7c0.2,0.5,0.2,1,0,1.6c-0.2,0.5-0.6,0.9-1.1,1.1c-0.5,0.2-1,0.2-1.6,0s-0.9-0.6-1.1-1.1L354.4,72
	c-0.2,0.1-0.4,0.1-0.7,0.1H329c-0.2,0-0.4,0-0.7-0.1l-6.7,15.4c-0.4,0.8-1,1.2-1.9,1.2c-0.3,0-0.5-0.1-0.8-0.2
	c-0.5-0.2-0.9-0.6-1.1-1.1c-0.2-0.5-0.2-1,0-1.6l21.6-49.5c0.4-0.8,1-1.2,1.9-1.2c0.9,0,1.5,0.4,1.9,1.2L364.9,85.7z M352.6,68
	l-11.3-25.8L330.1,68H352.6z"/>
<path class="st5" d="M412.3,61.8c0,7.4-2.6,13.7-7.9,18.9c-5.2,5.2-11.6,7.8-19,7.8h-11.7c-0.9,0-1.7-0.3-2.4-1
	c-0.7-0.6-1-1.4-1-2.4c0-0.9,0.3-1.8,1-2.4c0.6-0.7,1.4-1,2.4-1h11.7c5.5,0,10.3-1.9,14.2-5.8c3.9-3.9,5.9-8.6,5.9-14.1
	c0-5.5-2-10.2-5.9-14.1c-3.9-3.9-8.6-5.9-14.2-5.9h-11.7c-0.9,0-1.7-0.3-2.4-1c-0.7-0.7-1-1.5-1-2.4c0-0.9,0.3-1.7,1-2.4
	c0.6-0.7,1.4-1,2.4-1h11.7c7.4,0,13.8,2.6,19,7.8C409.7,48.1,412.3,54.4,412.3,61.8z"/>
<path class="st5" d="M459,87c-0.7,1-1.6,1.5-2.9,1.5h-25.4c-0.9,0-1.8-0.3-2.4-1c-0.6-0.7-1-1.5-1-2.4c0-0.9,0.3-1.8,1-2.4
	c0.7-0.7,1.5-1,2.4-1h20.2l-15.3-34.8l-17.4,39.6c-0.6,1.4-1.6,2.1-3.1,2.1c-0.5,0-0.9-0.1-1.4-0.3c-0.9-0.4-1.5-1-1.8-1.9
	c-0.3-0.9-0.3-1.7,0-2.6l20.5-46.7c0.6-1.4,1.6-2.1,3.1-2.1c1.5,0,2.5,0.7,3.1,2.1l20.5,46.7C459.7,84.9,459.6,86,459,87z"/>
<path class="st5" d="M486.7,81.8c2.3,0,4.3-0.8,5.9-2.4c1.6-1.6,2.4-3.6,2.4-5.8c0-2.3-0.8-4.2-2.4-5.9c-1.6-1.6-3.6-2.4-5.9-2.4
	h-9.3c-4.2,0-7.7-1.5-10.7-4.4c-3-2.9-4.5-6.5-4.5-10.7c0-4.2,1.5-7.7,4.5-10.6c2.9-3,6.5-4.4,10.7-4.4h9.3c4.2,0,7.7,1.5,10.7,4.4
	c3,2.9,4.5,6.5,4.5,10.6c0,0.9-0.3,1.8-1,2.4c-0.7,0.7-1.5,1-2.4,1c-0.9,0-1.7-0.3-2.4-1c-0.7-0.7-1-1.5-1-2.4
	c0-2.3-0.8-4.2-2.4-5.8c-1.6-1.6-3.6-2.4-5.9-2.4h-9.3c-2.3,0-4.2,0.8-5.8,2.4c-1.6,1.6-2.4,3.6-2.4,5.8c0,2.3,0.8,4.2,2.4,5.9
	c1.6,1.6,3.6,2.4,5.8,2.4h9.3c4.2,0,7.7,1.5,10.7,4.4c3,2.9,4.5,6.5,4.5,10.7c0,4.2-1.5,7.7-4.5,10.6c-3,3-6.5,4.4-10.7,4.4h-9.3
	c-4.2,0-7.7-1.5-10.7-4.4c-3-2.9-4.5-6.5-4.5-10.6c0-0.9,0.3-1.8,1-2.4c0.6-0.7,1.4-1,2.4-1c0.9,0,1.8,0.3,2.4,1
	c0.7,0.7,1,1.5,1,2.4c0,2.3,0.8,4.2,2.4,5.8c1.6,1.6,3.6,2.4,5.8,2.4H486.7z"/>
<path class="st5" d="M510,88.6c-0.9,0-1.7-0.3-2.4-1c-0.7-0.6-1-1.4-1-2.4V38.4c0-0.9,0.3-1.7,1-2.4c0.6-0.7,1.4-1,2.4-1
	c0.9,0,1.8,0.3,2.4,1c0.7,0.7,1,1.5,1,2.4v20h27.3v-20c0-0.9,0.3-1.7,1-2.4c0.7-0.7,1.5-1,2.4-1c0.9,0,1.8,0.3,2.4,1
	c0.7,0.7,1,1.5,1,2.4v46.7c0,0.9-0.3,1.7-1,2.4c-0.7,0.7-1.5,1-2.4,1c-0.9,0-1.7-0.3-2.4-1c-0.7-0.6-1-1.4-1-2.4v-20h-27.3v20
	c0,0.9-0.3,1.7-1,2.4C511.8,88.2,511,88.6,510,88.6z"/>
</svg>
