<svg id="Layer_1" data-name="Layer 1" xmlns="http://www.w3.org/2000/svg" xmlns:xlink="http://www.w3.org/1999/xlink" viewBox="0 0 154 40"><defs><style>.cls-1{fill:none;}.cls-2{fill:#0f3e5c;}.cls-3{clip-path:url(#clip-path);}</style><clipPath id="clip-path"><circle class="cls-1" cx="24.47" cy="17.48" r="19.16"/></clipPath></defs><title>ikan-fresh-dark</title><circle class="cls-1" cx="-72.72" cy="20.47" r="95.75"/><path class="cls-2" d="M47.82,10.24h2.55V23.31H47.82Z"/><path class="cls-2" d="M56.59,18l-1.23,1.4v3.92H52.81V10.24h2.55v6l1-1.49,3.85-4.5h3.11l-5.08,5.81,5.27,7.26H60.29Z"/><path class="cls-2" d="M72.41,20.49H67.48l-.89,2.82H63.91l4.54-13.07h3L76,23.31H73.31Zm-.76-2.35L70,12.7l-1.73,5.44Z"/><path class="cls-2" d="M88,10.24V23.31h-2.6l-5.46-8.55v8.55H77.38V10.24H80l5.47,8.55V10.24Z"/><path class="cls-2" d="M96.15,11.55V16.2h6v1.3h-6v5.81h-1.4V10.24h8v1.31Z"/><path class="cls-2" d="M109.45,18h-3v5.27h-1.4V10.24h5.12a3.71,3.71,0,0,1,4,3.9A3.64,3.64,0,0,1,111,18l3.43,5.32h-1.65Zm-3-1.27h3.64a2.47,2.47,0,0,0,2.64-2.61,2.47,2.47,0,0,0-2.64-2.61h-3.64Z"/><path class="cls-2" d="M125,22v1.31h-8.29V10.24h8.22v1.31h-6.82v4.53h6.34v1.27h-6.34V22Z"/><path class="cls-2" d="M126.77,21.39l.82-1.07a5.16,5.16,0,0,0,4,1.91c1.94,0,3.28-.9,3.28-2.3,0-3.51-7.78-1.64-7.78-6.42,0-2.15,1.83-3.5,4.54-3.5a5.68,5.68,0,0,1,4.27,1.72l-.82,1.07a4.36,4.36,0,0,0-3.45-1.48c-1.88,0-3.11.84-3.11,2.13,0,3.46,7.78,1.57,7.78,6.41,0,2.24-1.9,3.68-4.71,3.68A6.22,6.22,0,0,1,126.77,21.39Z"/><path class="cls-2" d="M148.52,10.24V23.31h-1.41V17.37h-7v5.94h-1.4V10.24h1.4v5.82h7V10.24Z"/><path class="cls-2" d="M48.24,25.78h.45a.33.33,0,0,1,.36.35V30h1.86a.33.33,0,0,1,.35.35v.18a.33.33,0,0,1-.35.35H48.24a.34.34,0,0,1-.36-.35v-4.4A.34.34,0,0,1,48.24,25.78Z"/><path class="cls-2" d="M56.05,30.68l-.46-1.08h-2l-.46,1.08a.36.36,0,0,1-.33.21h-.44c-.33,0-.46-.19-.33-.49L53.93,26a.38.38,0,0,1,.33-.21h.64a.37.37,0,0,1,.33.21l1.92,4.4c.13.3,0,.49-.33.49h-.44A.35.35,0,0,1,56.05,30.68Zm-1.47-3.45L54,28.71h1.26Z"/><path class="cls-2" d="M59.56,27.6v2.94a.33.33,0,0,1-.35.35h-.46a.33.33,0,0,1-.35-.35V26.15a.33.33,0,0,1,.35-.35h.55a.39.39,0,0,1,.28.13l2.53,3.16V26.15a.33.33,0,0,1,.35-.35h.46a.33.33,0,0,1,.35.35v4.39a.33.33,0,0,1-.35.35h-.52a.37.37,0,0,1-.27-.13Z"/><path class="cls-2" d="M69.49,28.37v2.15a.1.1,0,0,1-.06.09l-.07,0a4.69,4.69,0,0,1-1.77.35,2.86,2.86,0,0,1-2.77-1.49,2.52,2.52,0,0,1-.25-1.15h0a2.59,2.59,0,0,1,0-.48,2.31,2.31,0,0,1,.22-.69,2.83,2.83,0,0,1,2.72-1.49h0c.76,0,1.52.1,1.52.58v.21c0,.68-.75.14-1.51.13a1.73,1.73,0,1,0,0,3.46,2.24,2.24,0,0,0,.7-.09v-.91h-.8a.33.33,0,0,1-.35-.35v-.35a.33.33,0,0,1,.35-.35h1.62A.33.33,0,0,1,69.49,28.37Z"/><path class="cls-2" d="M74.74,29.46c0,.92-.77,1.52-2.12,1.52a5.12,5.12,0,0,1-.67,0l-.17,0-.16,0c-.78-.16-1.12-.42-1.06-.75l0-.2c.11-.63.67-.05,1.35.11l.23,0h.18v0h.22c.63,0,1-.19,1-.6A.58.58,0,0,0,73.2,29a4,4,0,0,0-.43-.16l-.53-.16c-.76-.21-1.61-.54-1.61-1.52s.75-1.44,2-1.44l.5,0c1,.15,1.46.43,1.39.81l0,.2c-.12.68-.77-.06-1.53-.14h-.22c-.61,0-.94.16-.94.54s.33.53.94.69l.73.21C74.33,28.33,74.74,28.78,74.74,29.46Z"/><path class="cls-2" d="M75.91,28.9V26.14a.34.34,0,0,1,.36-.35h.45a.33.33,0,0,1,.36.35v2.73c0,.71.3,1.21,1.27,1.21s1.29-.49,1.29-1.21V26.14a.33.33,0,0,1,.35-.35h.46a.33.33,0,0,1,.35.35V28.9c0,1-.6,2.07-2.45,2.07S75.91,29.94,75.91,28.9Z"/><path class="cls-2" d="M83.52,27.6l0,2.94a.33.33,0,0,1-.36.35h-.45a.33.33,0,0,1-.36-.35V26.15a.33.33,0,0,1,.36-.35h.54a.37.37,0,0,1,.28.13l2.54,3.16V26.15a.33.33,0,0,1,.36-.35h.45a.33.33,0,0,1,.36.35v4.39a.33.33,0,0,1-.36.35h-.51a.39.39,0,0,1-.28-.13Z"/><path class="cls-2" d="M93.46,28.37v2.15a.1.1,0,0,1-.07.09l-.06,0a4.78,4.78,0,0,1-1.78.35,2.87,2.87,0,0,1-2.77-1.49,2.66,2.66,0,0,1-.25-1.15h0a2.61,2.61,0,0,1,0-.48,2.28,2.28,0,0,1,.21-.69,2.83,2.83,0,0,1,2.73-1.49h0c.76,0,1.52.1,1.52.58v.21c0,.68-.74.14-1.5.13a1.73,1.73,0,1,0,0,3.46,2.14,2.14,0,0,0,.69-.09v-.91h-.79a.33.33,0,0,1-.36-.35v-.35a.33.33,0,0,1,.36-.35H93.1A.33.33,0,0,1,93.46,28.37Z"/><path class="cls-2" d="M97.24,25.79h1.67c2.25,0,3,1.28,3,2.56s-.74,2.54-3,2.54H97.24a.33.33,0,0,1-.35-.35v-4.4A.33.33,0,0,1,97.24,25.79ZM98.91,30c1.32,0,1.79-.74,1.79-1.65s-.45-1.67-1.79-1.67h-.86V30Z"/><path class="cls-2" d="M106.69,30.68l-.46-1.08h-2l-.46,1.08a.35.35,0,0,1-.33.21H103c-.32,0-.45-.19-.32-.49l1.92-4.4a.35.35,0,0,1,.32-.21h.65a.38.38,0,0,1,.33.21l1.92,4.4c.12.3,0,.49-.33.49H107A.36.36,0,0,1,106.69,30.68Zm-1.47-3.45-.62,1.48h1.25Z"/><path class="cls-2" d="M109.05,30.54V26.15a.33.33,0,0,1,.36-.35h1.76c1.55,0,2.23.61,2.23,1.64a1.57,1.57,0,0,1-1,1.48l1,1.43c.22.32.1.54-.3.54h-.46a.35.35,0,0,1-.3-.16l-1.09-1.65h-1v1.46a.34.34,0,0,1-.36.35h-.45A.33.33,0,0,1,109.05,30.54Zm1.17-2.35h1.27a.69.69,0,0,0,.72-.75c0-.51-.28-.75-1-.75h-1Z"/><path class="cls-2" d="M115.25,25.79h.45a.33.33,0,0,1,.36.35v4.39a.33.33,0,0,1-.35.35h-.46a.33.33,0,0,1-.35-.35V26.14A.33.33,0,0,1,115.25,25.79Z"/><path class="cls-2" d="M119.74,30.54v-4.4a.34.34,0,0,1,.36-.35h.45a.33.33,0,0,1,.36.35v1.71l2.25-2a.36.36,0,0,1,.23-.09h.55c.4,0,.47.18.16.44l-2.35,2.05,2.51,2.16c.31.28.24.45-.17.45h-.55a.34.34,0,0,1-.23-.08l-2.4-2v1.75a.33.33,0,0,1-.36.35h-.45A.34.34,0,0,1,119.74,30.54Z"/><path class="cls-2" d="M125.34,29.39a2.53,2.53,0,0,1-.2-1,2.73,2.73,0,0,1,.22-1.12,3.11,3.11,0,0,1,5.37,0,2.75,2.75,0,0,1,.24,1.12,2.53,2.53,0,0,1-.2,1,3.09,3.09,0,0,1-5.43,0Zm4.44-1A1.73,1.73,0,1,0,128,30.1,1.65,1.65,0,0,0,129.78,28.35Z"/><path class="cls-2" d="M132.61,25.78h.46a.33.33,0,0,1,.35.35V30h1.86a.34.34,0,0,1,.36.35v.18a.34.34,0,0,1-.36.35h-2.68a.33.33,0,0,1-.35-.35v-4.4A.33.33,0,0,1,132.61,25.78Z"/><path class="cls-2" d="M140.42,30.68,140,29.6h-2l-.46,1.08a.36.36,0,0,1-.33.21h-.44c-.33,0-.45-.19-.33-.49L138.3,26a.38.38,0,0,1,.33-.21h.65a.35.35,0,0,1,.32.21l1.92,4.4c.13.3,0,.49-.32.49h-.45A.36.36,0,0,1,140.42,30.68ZM139,27.23l-.63,1.48h1.26Z"/><path class="cls-2" d="M143.9,28.08v2.46a.33.33,0,0,1-.35.35h-.42a.33.33,0,0,1-.35-.35V26.15a.33.33,0,0,1,.35-.35h.69a.37.37,0,0,1,.32.2l1.55,3.3,1.52-3.3a.37.37,0,0,1,.32-.2h.72a.34.34,0,0,1,.36.35v4.39a.33.33,0,0,1-.35.35h-.42a.34.34,0,0,1-.36-.35V28.08l-1.22,2.61a.36.36,0,0,1-.32.2h-.5a.37.37,0,0,1-.32-.2Z"/><g class="cls-3"><path class="cls-2" d="M20.19,7A2.17,2.17,0,0,0,18,5.87s4.55-3.33,8.67-2c.94.31.67,2.1.67,2.1a12.34,12.34,0,0,0-7.13,1"/><path class="cls-2" d="M38.87,17.19a.62.62,0,0,0-.56-.67.38.38,0,0,0-.15,0c-.55-2.8-2.63-9-10.28-9.81-9.95-1.1-14,6.32-14.38,8.87-.17,1.25-.5,4.57-2.34,5.1a7.42,7.42,0,0,0-4.91,5A5.68,5.68,0,0,0,9.16,24a5.13,5.13,0,0,0,1.68,2.41,2.76,2.76,0,0,1,1.1,2.47s1.64-1,1.05-6.44,5.73-4.85,5.73-4.85.12-1,.65-1.34a2.17,2.17,0,0,0,0,2.26c.79.93.27,1.4.27,1.4a5.42,5.42,0,0,0,3.7-4.73,3.8,3.8,0,0,1,0,1.64,9.34,9.34,0,0,1,4.92.65s-2.66-2.1,1-6.14c0,0-4.25,5.48,1.42,6.79,4.56,1.05,5.73.66,6.33.35a.68.68,0,0,0,.42.21.64.64,0,0,0,.69-.59.61.61,0,0,0,0-.3h.07a.62.62,0,0,0,.67-.56m-5.55-4.71a.7.7,0,0,1-.76.64.69.69,0,0,1-.63-.75.7.7,0,0,1,1.39.11"/><path class="cls-2" d="M49.9,26.42a19,19,0,0,0-2.1-1.51l-.37-.21-.38-.19-.76-.38-.77-.34-.78-.31L44,23.22c-.26-.09-.53-.16-.79-.23s-.53-.13-.8-.18-.53-.11-.8-.15l-.81-.1-.41,0-.41,0c-.27,0-.54,0-.82,0a7.54,7.54,0,0,0-.82.06c-.27,0-.55.08-.82.14-1,.17-3.61,1.07-4.45,1.25l-.39.09-.38.07-.78.13-.8.1c-.26,0-.53,0-.8.06h-.81a8.81,8.81,0,0,1-1.62-.16,5.79,5.79,0,0,1-1.54-.5,4.82,4.82,0,0,1-.65-.42c-.09-.09-.19-.17-.27-.26a2.21,2.21,0,0,1-.22-.29,7.8,7.8,0,0,0,1.33.68,6.83,6.83,0,0,0,1.43.31,9.27,9.27,0,0,0,1.49,0c.24,0,.49,0,.73-.08s.49-.07.73-.12l.72-.15.72-.18.35-.1.35-.11.69-.23.34-.12.35-.12.68-.26,1.16-.46c.22-.09.81-.31,1.12-.39l.23-.07.23-.06.47-.11.48-.09.24,0,.24,0,.5-.05.49,0c.34,0,.67,0,1,0a8.61,8.61,0,0,1,1,.09,8.05,8.05,0,0,1,1,.18,9.67,9.67,0,0,1,1,.27c.31.1.61.22.91.35s.58.26.86.41.54.3.8.46.51.34.75.52.47.36.69.56l.32.29a8.64,8.64,0,0,1,1.78,2.34"/><path class="cls-2" d="M20.68,22.25a22,22,0,0,0,2.1,1.51l.38.2.37.2.77.37.77.35c.26.1.51.21.78.3s.52.19.78.27l.8.23.79.18L29,26c.26,0,.53.08.8.1l.41,0,.41,0c.27,0,.55,0,.82,0s.55,0,.82-.07a7.37,7.37,0,0,0,.82-.13c1-.17,3.61-1.07,4.45-1.26l.39-.08.39-.07c.25-.05.51-.1.78-.13s.52-.08.79-.1.53-.05.8-.06.54,0,.81,0a10,10,0,0,1,1.63.15,6.12,6.12,0,0,1,1.53.51,4,4,0,0,1,.65.42,2.23,2.23,0,0,1,.27.26,1.58,1.58,0,0,1,.22.29,7.1,7.1,0,0,0-1.33-.68,6.25,6.25,0,0,0-1.43-.31,9.14,9.14,0,0,0-1.48,0l-.74.08-.73.12-.72.16c-.24.05-.48.12-.71.18l-.35.1-.35.11-.7.22-.34.12-.34.13-.68.25-1.16.46c-.23.09-.82.32-1.13.4l-.23.06-.23.06-.47.11-.47.1-.25,0-.24,0c-.16,0-.33,0-.49.06l-.5,0c-.33,0-.67,0-1,0s-.67,0-1-.09-.67-.11-1-.18-.64-.17-.95-.27-.62-.23-.91-.35-.58-.27-.86-.41-.55-.3-.81-.47a8,8,0,0,1-.74-.51c-.25-.18-.47-.37-.69-.56l-.32-.29a8.79,8.79,0,0,1-1.79-2.34"/><path class="cls-2" d="M37.4,27.24l.1-.06.12-.05.26-.12L38,27l.16-.06.35-.13c.25-.07.52-.15.82-.21l.22-.05.24,0c.16,0,.32-.05.49-.06a4.38,4.38,0,0,1,.51,0l.27,0h.81l.54,0,.55.08.26.05.27,0,.51.13.25.07.24.08.24.08L45,27l.43.18c.28.12.53.26.75.38a6.55,6.55,0,0,1,1,.7,2.57,2.57,0,0,1,.32.3L47,28.42l-.51-.17-.66-.2-.78-.22-.42-.1-.45-.1-.45-.1-.48-.08-.47-.08-.25,0-.24,0-.49,0-.24,0h-.24l-.24,0h-1.6l-.8.05-.36,0h-.17l-.16,0-.29,0h-.13l-.12,0-.48.05s.14-.09.39-.22"/><path class="cls-2" d="M31.48,21.52l-.06,0-.06,0-.16.09-.08,0-.09,0-.21.1-.48.18-.14,0-.14,0-.29.07-.31.05-.16,0h-.82l-.34,0-.16,0-.17,0-.32-.06-.15,0-.15,0-.15,0-.14,0-.28-.09-.47-.21a4.27,4.27,0,0,1-.65-.4,1.47,1.47,0,0,1-.22-.19l.28.08.32.09.41.1.49.1.26.05.28.05.28,0,.29,0,.3,0h1.18l.28,0h.14l.14,0h.13l.13,0,.49-.07.22,0H31l.09,0,.18,0h.08l.07,0,.28-.05-.22.16"/><path class="cls-2" d="M42.24,32.88a24.89,24.89,0,0,1-2.77,1.31l-.48.16-.48.15-1,.27c-.32.09-.64.17-1,.24s-.64.14-1,.19-.64.11-1,.15l-1,.1-1,0h-.95c-.32,0-.64,0-1,0l-.48,0-.47-.06c-.32,0-.63-.1-.94-.17s-.62-.15-.93-.24-.61-.2-.91-.32c-1.16-.41-3.89-2-4.81-2.35l-.42-.17-.42-.16-.87-.31c-.29-.1-.59-.19-.88-.27s-.6-.16-.91-.23-.61-.13-.93-.18A10.91,10.91,0,0,0,16,30.8a6.87,6.87,0,0,0-1.87.27,4.59,4.59,0,0,0-.85.35,2.35,2.35,0,0,0-.37.24,1.75,1.75,0,0,0-.32.29,8.25,8.25,0,0,1,1.68-.51A7.84,7.84,0,0,1,16,31.37a11,11,0,0,1,1.7.3c.28.07.55.15.83.24l.8.29.79.32.78.35.38.19.37.19.74.4.37.21.36.21.72.43c.24.15,1,.61,1.22.77s.87.52,1.2.68l.24.12.26.11.51.23.53.2.26.1.27.09.55.16.57.14a9,9,0,0,0,1.15.22,9.24,9.24,0,0,0,1.17.1,11.61,11.61,0,0,0,1.18,0c.39,0,.78-.06,1.16-.12s.75-.13,1.12-.22.73-.18,1.08-.29l1-.37c.33-.14.66-.28,1-.44l.92-.5.43-.27a10.63,10.63,0,0,0,2.61-2.33"/><path class="cls-2" d="M7.74,31.74a25.86,25.86,0,0,1,2.77-1.31l.47-.15a4.42,4.42,0,0,1,.48-.15l1-.28,1-.24,1-.19q.48-.09,1-.15t1-.09c.32,0,.64,0,1-.05h1c.31,0,.63,0,.95,0l.47,0,.47.06c.32.05.63.1.95.17s.62.15.93.24.61.2.9.32c1.16.41,3.89,2,4.81,2.35l.42.17.43.17c.28.1.57.21.86.3l.89.28.91.23c.3.06.61.13.92.17a10.91,10.91,0,0,0,1.9.15,6.94,6.94,0,0,0,1.88-.27,3.91,3.91,0,0,0,.84-.35l.38-.23a2.24,2.24,0,0,0,.32-.3,8.42,8.42,0,0,1-1.69.51,7.2,7.2,0,0,1-1.71.07,10.59,10.59,0,0,1-1.7-.29c-.28-.07-.56-.16-.83-.25s-.54-.18-.81-.28-.53-.21-.79-.33l-.77-.35-.38-.19-.38-.19c-.25-.13-.5-.26-.74-.4l-.37-.21-.36-.21-.72-.43L25,29.36c-.23-.15-.86-.53-1.19-.69l-.25-.12-.25-.11-.51-.22L22.23,28,22,27.92l-.27-.09-.55-.17-.56-.14c-.38-.09-.77-.16-1.15-.22a11.74,11.74,0,0,0-1.18-.1,11.61,11.61,0,0,0-1.18,0,11.21,11.21,0,0,0-1.15.12c-.38.05-.76.13-1.13.21s-.73.19-1.08.3-.7.23-1,.37-.66.28-1,.44a10.18,10.18,0,0,0-.92.5l-.44.27a10.76,10.76,0,0,0-2.6,2.32"/><path class="cls-2" d="M28.1,29.41l.1.08.12.09.27.18.15.11.17.1.37.21c.27.13.56.28.89.41l.25.11.26.09.55.17a5.47,5.47,0,0,0,.58.15l.3.07.31.06.31.05.31,0c.21,0,.43,0,.64.06l.64,0H35l.62,0,.3,0,.3,0,.29-.05.28,0c.18,0,.36-.07.53-.12a9,9,0,0,0,.95-.28,8.6,8.6,0,0,0,1.31-.59,3.74,3.74,0,0,0,.45-.29l-.56.09-.62.09-.8.1c-.3,0-.61.07-1,.09l-.51,0-.53,0h-.55c-.18,0-.37,0-.56,0h-.57l-.28,0h-.29l-.56-.05-.29,0-.28,0-.27,0-.28,0-.54-.09L31.28,30,31,30l-.25-.05-.24-.06c-.33-.06-.63-.15-.92-.22l-.4-.11L29,29.46l-.18-.05-.33-.1-.14,0-.13,0-.54-.16a4.71,4.71,0,0,0,.4.34"/><path class="cls-2" d="M20,34.77l-.06-.06-.06-.06-.16-.13-.08-.08-.1-.07-.21-.15a5.75,5.75,0,0,0-.51-.3l-.15-.08-.15-.07-.32-.13-.34-.12-.18-.06-.18,0-.19-.05-.19,0c-.12,0-.25,0-.38-.06l-.39,0H15.17l-.18,0-.18,0a3.23,3.23,0,0,0-.33.06c-.22,0-.42.09-.6.14a5.05,5.05,0,0,0-.84.33,1.23,1.23,0,0,0-.29.17l.34,0,.39,0,.49,0,.58,0h.64l.34,0,.34,0,.35,0,.17,0,.17,0,.34,0,.17,0,.17,0,.17,0,.16,0,.32.07.16,0,.15,0,.15,0,.15,0c.19,0,.37.12.54.18l.24.09.11,0,.11,0,.19.07.08,0,.08,0,.32.12L20,34.77"/></g></svg>